<?xml version="1.0" standalone="no"?>
<!DOCTYPE svg PUBLIC "-//W3C//DTD SVG 20010904//EN"
 "http://www.w3.org/TR/2001/REC-SVG-20010904/DTD/svg10.dtd">
<svg version="1.0" xmlns="http://www.w3.org/2000/svg"
 width="577.000000pt" height="577.000000pt" viewBox="0 0 577.000000 577.000000"
 preserveAspectRatio="xMidYMid meet">
<metadata>
Created by potrace 1.11, written by Peter Selinger 2001-2013
</metadata>
<g transform="translate(0.000000,577.000000) scale(0.100000,-0.100000)"
fill="#000000" stroke="none">
<path d="M1937 5588 c-18 -6 -29 -19 -33 -36 -3 -15 -10 -45 -15 -67 -5 -22
-12 -49 -14 -60 -3 -11 -18 -60 -35 -110 -17 -49 -33 -106 -36 -125 -9 -59
-26 -83 -59 -87 -28 -3 -249 -48 -332 -67 -71 -16 -295 -78 -323 -89 -8 -3
-42 -15 -75 -27 -190 -68 -360 -183 -408 -275 -29 -55 -27 -209 4 -272 44 -91
171 -183 367 -265 42 -18 79 -33 82 -33 3 -1 42 -13 88 -28 45 -15 138 -41
205 -58 67 -17 125 -33 130 -36 4 -2 3 -11 -4 -19 -6 -8 -9 -14 -6 -14 2 0 -2
-30 -10 -67 -8 -38 -16 -79 -19 -93 -2 -14 -11 -56 -19 -95 -8 -38 -17 -86
-20 -105 -3 -19 -11 -53 -16 -74 -6 -22 -14 -60 -19 -85 -8 -46 -34 -173 -44
-221 -3 -14 -10 -45 -15 -70 -5 -25 -10 -46 -10 -47 -1 -2 -1 -4 -2 -5 -1 -2
-2 -14 -4 -28 -2 -14 -6 -36 -9 -50 -4 -14 -9 -41 -12 -60 -3 -19 -8 -38 -10
-41 -2 -4 -6 -24 -10 -44 -3 -21 -8 -47 -10 -59 -3 -11 -7 -31 -10 -43 -2 -13
-6 -33 -8 -45 -3 -13 -7 -32 -9 -43 -3 -11 -8 -40 -13 -65 -8 -47 -10 -55 -14
-67 -1 -5 -3 -12 -4 -18 -6 -38 -23 -114 -25 -117 -1 -2 -4 -19 -7 -38 -2 -19
-7 -46 -10 -60 -10 -34 -10 -37 -23 -100 -5 -30 -13 -66 -16 -80 -17 -82 -26
-129 -30 -152 -3 -14 -14 -70 -26 -124 -12 -55 -23 -108 -24 -119 -5 -27 -12
-60 -41 -200 -13 -66 -26 -130 -29 -143 -2 -12 -6 -30 -9 -40 -3 -9 -7 -33
-10 -52 -4 -19 -17 -87 -31 -150 -14 -63 -26 -122 -26 -130 -1 -8 -6 -33 -11
-55 -6 -22 -11 -47 -12 -55 -1 -8 -12 -70 -26 -137 -22 -115 -23 -123 -7 -141
22 -25 85 -43 122 -36 64 11 74 29 111 207 1 4 3 10 4 15 1 4 2 10 1 14 0 4 5
27 13 50 8 24 17 61 22 83 9 47 4 28 45 195 19 81 39 140 48 147 17 12 18 15
20 68 2 52 17 42 17 -11 1 -39 6 -51 35 -78 65 -61 207 -144 319 -186 19 -7
40 -16 45 -20 6 -4 24 -11 40 -15 17 -5 32 -9 35 -10 3 -1 43 -14 90 -29 47
-15 92 -29 100 -31 8 -2 35 -8 60 -15 25 -7 54 -14 65 -16 11 -2 31 -6 45 -9
61 -12 147 -28 170 -30 14 -2 41 -6 60 -9 64 -9 134 -18 190 -21 30 -2 87 -7
125 -10 199 -19 474 -19 660 -1 33 3 85 8 115 11 30 2 64 6 75 9 11 2 45 7 75
10 60 7 99 13 145 23 17 3 39 7 50 9 41 7 112 23 170 39 33 9 69 18 79 20 26
6 116 34 141 45 11 4 42 16 70 27 29 11 69 37 98 65 44 44 69 59 66 41 -6 -36
4 -85 20 -100 10 -10 22 -36 26 -58 4 -22 7 -40 7 -40 0 0 4 -20 9 -45 5 -25
12 -56 14 -70 20 -96 47 -238 48 -253 1 -9 5 -17 10 -17 4 0 6 -4 3 -9 -3 -5
-1 -33 5 -62 6 -30 12 -63 14 -74 15 -97 22 -111 56 -125 37 -16 122 -7 156
16 28 18 28 40 -2 184 -3 14 -7 45 -10 70 -3 25 -8 52 -10 60 -3 8 -7 31 -9
50 -3 19 -10 59 -16 89 -5 30 -8 56 -5 59 2 3 0 12 -4 21 -5 9 -12 36 -16 61
-4 25 -8 54 -10 65 -2 11 -8 49 -15 85 -7 36 -14 76 -16 90 -2 14 -7 45 -12
70 l-8 45 71 70 c73 72 123 157 134 225 2 19 5 80 5 135 0 89 -3 107 -28 159
-35 74 -153 194 -256 262 l-75 50 -12 64 c-7 36 -14 83 -16 105 -3 22 -8 47
-11 55 -3 8 -7 31 -10 50 -2 19 -9 64 -15 100 -6 36 -13 79 -16 95 -3 17 -10
57 -15 90 -6 33 -12 71 -14 85 -3 14 -5 25 -6 25 -1 0 -3 16 -5 35 -7 53 -13
95 -15 95 -1 0 -3 9 -4 20 -10 73 -18 119 -20 124 -2 3 -7 29 -11 56 -4 28 -9
59 -11 70 -2 11 -6 35 -8 54 -3 18 -7 40 -10 50 -3 9 -8 36 -11 61 -7 53 -10
67 -36 220 -12 63 -23 129 -25 145 -3 17 -6 41 -8 55 -2 14 -7 41 -11 61 -7
40 -8 39 100 56 25 4 66 12 175 38 77 18 165 43 270 78 69 23 127 42 130 42
10 3 62 25 118 51 128 59 257 165 288 239 18 44 26 180 13 230 -14 51 -86 135
-158 184 -54 36 -235 127 -271 136 -3 0 -48 15 -100 32 -52 17 -162 48 -245
67 -82 20 -185 45 -228 57 -43 11 -81 17 -86 14 -5 -2 -26 2 -47 11 -22 9 -52
19 -69 21 -16 3 -50 8 -74 13 -24 4 -105 8 -180 9 -75 0 -152 3 -171 6 -158
21 -869 29 -1120 12 -63 -4 -152 -9 -196 -12 l-81 -5 -42 123 c-22 67 -42 127
-44 132 -1 6 -5 15 -9 20 -3 6 -11 37 -18 70 -7 33 -19 67 -27 75 -15 17 -96
22 -136 8z m-72 -1697 c56 -9 125 -17 220 -26 22 -2 67 -7 100 -10 33 -4 87
-8 120 -10 33 -2 98 -7 145 -10 47 -3 195 -8 330 -11 135 -3 246 -7 248 -9 3
-3 5 -67 3 -102 -1 -15 -11 -25 -37 -33 -35 -12 -35 -12 -14 -27 12 -8 28 -16
37 -17 42 -6 11 -88 -41 -110 -18 -8 -36 -19 -40 -24 -3 -6 -20 -13 -36 -17
-17 -4 -35 -16 -42 -28 -10 -21 -10 -21 8 -6 26 21 134 61 134 48 0 -5 -11
-26 -24 -47 -14 -20 -28 -50 -32 -67 -4 -16 -15 -41 -25 -55 -10 -14 -20 -40
-21 -58 l-2 -34 -18 22 c-21 26 -76 26 -125 -1 -17 -9 -44 -19 -60 -21 l-28
-3 0 83 c0 62 -4 85 -15 92 -12 8 -12 11 3 28 36 40 15 44 -23 4 -23 -23 -47
-42 -54 -42 -14 0 -96 -77 -96 -90 0 -4 -23 16 -51 43 -40 41 -49 56 -44 75 4
15 2 21 -5 17 -5 -3 -10 -13 -10 -22 0 -12 -7 -14 -31 -9 -31 6 -31 6 -25 -32
3 -20 2 -53 -2 -72 -6 -24 -4 -46 6 -69 l14 -35 -24 16 c-12 8 -24 25 -26 37
-2 12 -7 19 -12 16 -4 -3 -5 -20 -1 -37 13 -67 8 -82 -49 -138 -41 -40 -58
-67 -67 -100 -9 -35 -9 -42 0 -30 7 8 19 17 27 19 8 2 34 10 58 17 l42 13 -31
-47 c-18 -26 -39 -53 -47 -59 -26 -21 -5 -27 37 -11 48 19 50 15 39 -61 -5
-31 -11 -67 -13 -81 -5 -30 -7 -78 -6 -102 2 -28 31 -21 32 7 2 37 3 43 12 51
4 4 7 16 7 27 0 10 11 56 26 101 22 72 28 82 50 84 23 2 33 -11 15 -22 -13 -8
-21 -51 -27 -152 -4 -52 -2 -94 3 -97 5 -3 7 18 5 50 -3 52 -1 57 33 90 43 41
70 103 61 138 -4 14 -2 25 4 25 5 0 10 -5 10 -10 0 -6 20 -32 45 -59 l44 -47
-60 -60 c-33 -32 -76 -80 -96 -107 -35 -47 -35 -48 -31 -137 4 -100 8 -95 -72
-105 -45 -6 -76 -11 -127 -20 -45 -8 -257 -54 -273 -59 -8 -3 -53 -16 -100
-29 -142 -40 -294 -103 -412 -171 -26 -14 -46 -21 -43 -14 2 7 7 24 9 38 3 14
10 45 16 70 6 25 20 83 30 130 40 185 50 229 80 355 12 50 24 101 26 115 3 14
23 104 45 200 22 96 43 186 45 200 3 14 16 75 30 135 34 147 32 139 34 145 1
3 2 8 2 11 -1 3 6 30 14 60 8 30 17 70 20 89 8 46 12 64 14 68 3 3 5 9 15 62
5 25 10 48 11 53 1 4 2 12 3 17 1 12 29 13 106 1z m1985 -16 c0 0 7 -36 16
-80 8 -44 17 -95 20 -114 2 -19 6 -37 8 -40 3 -4 7 -27 10 -51 6 -37 11 -66
21 -110 1 -3 7 -39 14 -80 7 -41 17 -91 21 -110 5 -19 11 -51 14 -70 3 -19 12
-71 20 -115 8 -44 18 -96 21 -115 3 -19 8 -42 10 -50 2 -8 7 -28 9 -45 3 -16
10 -55 16 -85 16 -78 26 -135 35 -195 2 -11 4 -20 5 -20 2 0 7 -30 15 -85 3
-25 10 -58 15 -75 5 -16 12 -52 15 -79 3 -27 8 -53 11 -58 7 -11 1 -10 -33 4
-15 6 -32 12 -38 13 -5 2 -51 15 -101 29 -103 30 -97 29 -224 55 -136 28 -267
44 -351 44 l-36 -1 7 38 c9 50 6 131 -7 155 -24 47 -30 82 -17 100 12 16 16
14 48 -21 20 -22 36 -35 36 -31 0 15 -27 73 -41 87 -8 8 -20 27 -26 42 -11 24
-10 29 6 37 10 6 21 8 24 5 3 -3 8 -1 12 5 7 12 -5 14 -44 11 -23 -2 -23 -1
-8 15 10 9 15 21 12 26 -6 9 7 13 31 10 23 -3 50 58 53 119 1 8 18 23 39 32
58 26 94 60 93 88 -1 66 -13 76 -45 41 -31 -35 -55 -33 -71 5 -11 27 -20 34
-42 34 -15 0 -36 7 -46 14 -19 15 -3 19 118 30 17 2 37 6 45 9 8 3 22 5 30 5
8 -1 25 2 38 6 42 14 93 -57 83 -116 0 -5 3 -8 8 -8 5 0 7 33 5 73 -3 40 0 81
6 92 7 13 8 35 3 59 -7 33 -14 41 -38 48 -17 4 -37 6 -45 3 -11 -3 -20 6 -28
27 -10 28 -9 35 8 53 11 12 23 36 26 54 6 28 4 33 -17 38 -13 4 -26 6 -27 4
-2 -1 -9 4 -15 13 -26 32 -95 19 -120 -23 -9 -16 -14 -30 -12 -33 3 -2 -15
-28 -40 -57 -25 -29 -45 -51 -45 -49 -4 44 -5 140 -1 144 12 12 10 47 -5 69
-22 34 -11 45 49 45 29 0 60 1 70 1 11 0 44 12 75 26 54 25 92 35 92 25 0 -3
-25 -29 -55 -60 -31 -30 -54 -57 -51 -59 4 -4 136 123 136 132 0 2 -6 2 -14
-1 -7 -3 -21 6 -30 20 -15 25 -15 26 1 27 10 0 27 2 38 4 11 2 47 6 79 9 33 3
61 7 62 9 2 2 44 4 44 2z m-505 -325 c1 -22 -2 -40 -5 -40 -3 0 -19 14 -35 30
-30 31 -27 44 10 52 27 6 29 3 30 -42z m154 -77 c6 -13 15 -23 21 -23 6 0 9
-4 6 -9 -3 -4 4 -25 14 -47 34 -66 26 -85 -40 -91 -19 -2 -57 -8 -83 -13 -55
-11 -83 -13 -74 -4 3 4 0 19 -8 35 -18 33 -19 43 -4 34 5 -4 15 -19 20 -33 14
-35 28 -12 25 39 -3 37 -3 37 28 28 17 -5 32 -9 33 -9 10 0 -23 50 -34 51 -7
1 -18 2 -25 3 -6 0 -13 6 -15 13 -3 7 8 11 29 11 66 -1 98 2 98 10 0 5 -25 6
-55 4 -60 -4 -74 10 -30 30 14 6 25 15 25 19 0 4 8 9 18 11 16 3 30 -12 51
-59z m-469 -17 c-5 -13 -6 -26 -3 -29 2 -3 0 -14 -6 -24 -6 -10 -11 -13 -11
-6 0 13 -40 5 -40 -8 0 -5 -4 -9 -10 -9 -14 0 10 51 38 78 30 29 44 29 32 -2z
m12 -58 c-7 -7 -12 -8 -12 -2 0 6 3 14 7 17 3 4 9 5 12 2 2 -3 -1 -11 -7 -17z
m554 -45 c18 -24 17 -32 -3 -29 -11 2 -18 12 -19 24 -2 27 4 28 22 5z m-266
-59 c0 -19 -17 -34 -39 -34 -11 0 -8 71 3 89 7 11 12 9 22 -10 7 -13 13 -34
14 -45z m-283 4 c-3 -7 -5 -2 -5 12 0 14 2 19 5 13 2 -7 2 -19 0 -25z m283
-46 c0 -13 -39 -32 -45 -22 -4 6 4 14 17 19 30 12 28 12 28 3z m53 -17 c17
-16 32 -73 23 -82 -5 -5 -105 -43 -113 -43 -13 0 3 32 26 53 21 18 29 33 26
48 -8 39 12 51 38 24z m-598 -35 c3 -6 -1 -7 -9 -4 -18 7 -21 14 -7 14 6 0 13
-4 16 -10z m174 -45 c0 -16 -2 -15 -15 8 -8 15 -12 33 -8 39 9 14 22 -15 23
-47z m-54 25 c3 -5 2 -10 -4 -10 -5 0 -13 5 -16 10 -3 6 -2 10 4 10 5 0 13 -4
16 -10z m-5 -69 c0 -5 -7 -11 -15 -15 -15 -5 -20 5 -8 17 9 10 23 9 23 -2z
m-340 -41 c0 -5 -2 -10 -4 -10 -3 0 -8 5 -11 10 -3 6 -1 10 4 10 6 0 11 -4 11
-10z m48 -65 l0 -28 -19 24 c-19 25 -23 41 -13 52 12 11 32 -19 32 -48z m309
39 c-4 -4 -31 -16 -59 -26 -58 -20 -81 -42 -73 -69 5 -14 -3 -18 -37 -24 -24
-3 -55 -8 -70 -11 -24 -5 -28 -2 -29 18 -3 66 3 76 51 81 19 2 44 8 55 14 23
11 35 11 53 0 6 -5 12 -4 12 2 0 9 17 14 74 19 17 1 27 -1 23 -4z m-242 -14
c-3 -5 -11 -10 -16 -10 -6 0 -7 5 -4 10 3 6 11 10 16 10 6 0 7 -4 4 -10z
m-125 -62 c9 -17 4 -14 -23 12 -19 19 -33 38 -31 42 6 9 39 -23 54 -54z m77
40 c-3 -8 -6 -5 -6 6 -1 11 2 17 5 13 3 -3 4 -12 1 -19z m-48 -24 c25 -42 25
-44 7 -44 -7 0 -16 10 -19 23 -2 12 -8 30 -12 40 -12 30 2 19 24 -19z m-43
-51 c19 -28 25 -32 21 -15 -3 12 -3 22 -1 22 7 0 35 -62 30 -67 -3 -3 -8 2
-12 11 -3 9 -10 14 -14 11 -9 -5 -60 51 -60 66 0 17 9 9 36 -28z m82 -32 c10
-6 10 -10 -1 -20 -12 -9 -16 -7 -20 9 -5 21 0 25 21 11z"/>
</g>
</svg>
